<?xml version="1.0" standalone="no"?>
<!DOCTYPE svg PUBLIC "-//W3C//DTD SVG 20010904//EN"
 "http://www.w3.org/TR/2001/REC-SVG-20010904/DTD/svg10.dtd">
<svg version="1.0" xmlns="http://www.w3.org/2000/svg"
 width="900.000000pt" height="900.000000pt" viewBox="0 0 900.000000 900.000000"
 preserveAspectRatio="xMidYMid meet">
<metadata>
Created by potrace 1.11, written by Peter Selinger 2001-2013
</metadata>
<g transform="translate(0.000000,900.000000) scale(0.100000,-0.100000)"
fill="#000000" stroke="none">
<path d="M4367 8813 c-1 0 -56 -4 -122 -7 -66 -3 -131 -8 -145 -10 -14 -2 -54
-7 -90 -11 -36 -3 -81 -8 -100 -11 -183 -27 -310 -51 -442 -84 -109 -28 -318
-88 -343 -100 -11 -5 -38 -14 -60 -21 -130 -39 -500 -206 -665 -299 -30 -18
-75 -43 -100 -57 -69 -40 -305 -199 -395 -266 -186 -140 -470 -400 -605 -553
-330 -373 -560 -731 -767 -1194 -79 -175 -190 -523 -241 -750 -49 -221 -77
-408 -97 -660 -6 -68 -6 -518 -1 -580 12 -139 17 -188 21 -215 3 -16 7 -50 10
-75 3 -25 8 -58 11 -75 29 -178 55 -305 90 -435 14 -52 27 -103 29 -113 11
-49 113 -337 163 -457 78 -188 202 -431 312 -610 93 -150 294 -427 373 -512
19 -21 46 -53 60 -71 54 -71 331 -339 468 -454 210 -175 446 -338 663 -460 72
-40 381 -193 391 -193 3 0 31 -11 61 -25 212 -97 694 -235 944 -270 25 -4 65
-10 90 -15 25 -4 52 -8 60 -8 8 0 33 -3 55 -6 63 -8 164 -18 240 -22 78 -5
447 -4 540 1 55 3 84 5 230 21 82 8 243 33 324 50 42 9 87 18 101 20 70 12
375 100 497 143 416 146 764 330 1128 595 61 44 112 83 115 86 3 3 46 39 95
80 396 329 737 738 996 1195 47 84 89 161 95 175 3 8 16 35 29 60 83 161 249
607 280 750 2 8 13 53 25 100 12 47 24 96 26 110 3 14 9 48 14 75 6 28 12 61
15 75 3 14 7 36 10 50 2 14 7 45 10 70 4 25 8 56 10 70 7 42 15 115 21 192 3
40 8 93 10 118 5 56 5 466 0 540 -5 72 -16 198 -21 230 -2 14 -7 50 -10 80 -4
30 -17 114 -30 185 -13 72 -26 141 -28 155 -32 175 -175 617 -259 800 -65 142
-160 331 -201 401 -24 41 -52 89 -63 108 -36 62 -181 277 -233 347 -314 416
-687 767 -1096 1031 -55 36 -112 74 -127 84 -15 10 -29 19 -32 19 -2 0 -44 23
-93 51 -75 44 -277 144 -405 202 -211 96 -640 229 -878 271 -194 35 -234 41
-340 51 -36 4 -76 9 -90 11 -53 9 -526 24 -533 17z"/>
</g>
</svg>
